<svg xmlns="http://www.w3.org/2000/svg" xmlns:xlink="http://www.w3.org/1999/xlink" width="160" height="160" viewBox="0 0 160 160"><defs><path id="840kn2r01a" d="M0 0H160V160H0z"/></defs><g fill="none" fill-rule="evenodd"><g><g transform="translate(-121 -323) translate(121 323)"><mask id="f57pyhyteb" fill="#fff"><use xlink:href="#840kn2r01a"/></mask><use fill="#E9ECEF" xlink:href="#840kn2r01a"/><path fill="#CED4DA" d="M142.508 128.418c-3.755-6.07-16.352-9.848-28.828-15.242-12.474-5.395-15.435-7.269-15.435-7.269l-.11-12.42s4.672-3.727 6.126-15.415c2.923.878 5.994-4.527 6.153-7.372.159-2.745-.402-10.356-3.962-9.592.722-5.728 1.247-10.88 1.004-13.608-.943-9.98-10.397-20.5-24.953-20.5-14.553 0-24.02 10.52-24.95 20.5-.243 2.727.282 7.88 1.004 13.608-3.56-.764-4.134 6.847-3.962 9.592.159 2.845 3.227 8.25 6.152 7.372 1.455 11.688 6.127 15.415 6.127 15.415l-.123 12.42s-2.958 1.874-15.422 7.269c-12.476 5.394-25.073 9.171-28.828 15.242C19.138 133.857 20.14 160 20.14 160h124.717s1.015-26.143-2.348-31.582" mask="url(#f57pyhyteb)"/></g></g></g></svg>